<svg id="Layer_1" data-name="Layer 1" xmlns="http://www.w3.org/2000/svg" viewBox="0 0 400 400"><defs><style>.cls-1{fill:#f8991d;}</style></defs><title>Icon</title><path class="cls-1" d="M200,10C95.07,10,10,95.07,10,200S95.07,390,200,390s190-85.07,190-190S304.93,10,200,10ZM178.35,130.44q-1.2,6.68-2.27,19.52t-3,29.35q-1.9,16.51-4.73,35.13t-7.19,36.5a257.23,257.23,0,0,1-10.59,33.66,99.7,99.7,0,0,1-15.09,26.62,49.47,49.47,0,0,1-20.4,15.34q-11.54,4.5-26.7-.42a24.39,24.39,0,0,1-7.33-4.48,69.8,69.8,0,0,1-8.49-8.24,85.81,85.81,0,0,1-7.67-10.2,41.34,41.34,0,0,1-5-10.47,16,16,0,0,1-.52-8.65q1-3.67,5.79-5.28.88,3.81,2.39,9.77A52.82,52.82,0,0,0,71.9,300,34.1,34.1,0,0,0,79,309.45,13.64,13.64,0,0,0,89.73,313q18.08-1.44,30-10.8a74,74,0,0,0,19.53-23.52,126,126,0,0,0,11.63-31.57q4-17.4,6.4-35.25t4-34.45a288.61,288.61,0,0,1,4.13-29.11q1.14-10.6-2.43-13.56t-10.08-1.36a64.55,64.55,0,0,0-14.94,6.17q-8.44,4.58-16.73,9.13a115.17,115.17,0,0,1-15.75,7.28q-7.46,2.73-12,.63-6.38-2.93-5-7T96.33,141a108.66,108.66,0,0,1,17.54-9.4q10.92-4.83,23.55-9.64t25.86-9.31q13.24-4.49,24.8-8t20.32-6q8.76-2.51,12.25-3.63l12.68-3.56q8.1-2.26,16.44-4.71t14.84-4.18q6.49-1.73,7.86-1.95,5.17-1.1,13-2.62t15.21-2.69q7.42-1.17,13-1.77t5.58-.32l4.46,8.59q-7.33,1.73-19.91,4.14t-27.57,5.63q-15,3.22-31,7.3t-29.59,8.91a152.78,152.78,0,0,0-23.7,10.51Q181.83,124,178.35,130.44Zm153.89.38a7.87,7.87,0,0,1-1.43-.08c-.81-.08-1.69-.19-2.66-.32s-1.86-.27-2.68-.44a6.71,6.71,0,0,0-1.45-.2q-18.24,3.44-31.59,6.44a212.32,212.32,0,0,0-23,6.35,75,75,0,0,0-16.25,7.67,43.67,43.67,0,0,0-11.23,10.5,64.28,64.28,0,0,0-8.05,14.86,177.19,177.19,0,0,0-6.57,20.83q-1.61,5.26-2.84,10a56.82,56.82,0,0,0-1.52,8.2,10.1,10.1,0,0,0,1,6.31,68.63,68.63,0,0,0,25.78-5.34q12.59-5.21,25.07-11.58T300,192a79,79,0,0,1,26.5-6.54l1,5.24q.09.46-8.07,3.53t-20.76,8.17q-12.61,5.1-27.51,11.8t-28.31,14.44a148,148,0,0,0-23.15,16.17q-9.74,8.45-12.19,16.7-4.5,16.2-8.16,33.05t-6.16,33.62a5.71,5.71,0,0,1-3.29,3.22q-2.31.91-4-1.84a12.82,12.82,0,0,1-1.8-6.39,33.85,33.85,0,0,1,.67-7.09,67,67,0,0,1,1.83-7.19,55.56,55.56,0,0,0,1.69-6.69q.71-2.49,2.23-8.8t3.15-13.34q1.62-7,3-13.43t2.1-8.89a4.34,4.34,0,0,0-1.27-4.84q-2.12-1.84-4.44-3.53a17.6,17.6,0,0,1-3.74-3.54q-1.41-1.86.81-5.11a7.68,7.68,0,0,1,3.71-2.83q2.42-.93,5.09-1.79a20.65,20.65,0,0,0,4.78-2.2,7.22,7.22,0,0,0,3-4.34l16.68-54.13a27.65,27.65,0,0,1-3-10.06,15.56,15.56,0,0,1,1.4-7.58,25.06,25.06,0,0,1,4.66-6.55q3.06-3.17,7-7.23,22.78-8.08,45-14.87A301.12,301.12,0,0,1,324.81,119a8.16,8.16,0,0,1,3.79,1.29,16.83,16.83,0,0,1,4.15,3.23,7.27,7.27,0,0,1,2.05,4Q335.06,129.57,332.23,130.82Z"/></svg>