<svg id="Layer_1" data-name="Layer 1" xmlns="http://www.w3.org/2000/svg" xmlns:xlink="http://www.w3.org/1999/xlink" viewBox="0 0 2500 500"><defs><style>.cls-1{fill:none;}.cls-2{font-size:250px;fill:#fff;font-family:NothingYouCouldDo, Nothing You Could Do;letter-spacing:-0.08em;}.cls-3{fill:#2f98bb;}.cls-4{clip-path:url(#clip-path);}.cls-5{fill:#f8991d;}</style><clipPath id="clip-path"><rect class="cls-1" width="500" height="500"/></clipPath></defs><title>logo</title><text class="cls-2" transform="translate(534.39 309.08)">JordanFjellman<tspan class="cls-3" x="1540.15" y="0">Blog</tspan></text><g class="cls-4"><g class="cls-4"><path class="cls-5" d="M250,12.5C118.83,12.5,12.5,118.83,12.5,250S118.83,487.5,250,487.5,487.5,381.17,487.5,250,381.17,12.5,250,12.5M222.93,163.05q-1.5,8.34-2.83,24.4t-3.7,36.69Q214,244.77,210.49,268t-9,45.63a321.93,321.93,0,0,1-13.24,42.07q-7.8,19.73-18.86,33.27T143.91,408.2q-14.43,5.63-33.37-.53-3.71-1.17-9.16-5.6a87.23,87.23,0,0,1-10.61-10.3A107.38,107.38,0,0,1,81.17,379a51.65,51.65,0,0,1-6.3-13.09q-1.87-6.22-.65-10.82t7.23-6.6q1.1,4.77,3,12.21A66,66,0,0,0,89.87,375a42.63,42.63,0,0,0,8.91,11.79,17,17,0,0,0,13.38,4.4q22.6-1.81,37.49-13.51a92.55,92.55,0,0,0,24.41-29.4,157.49,157.49,0,0,0,14.54-39.46q5-21.74,8-44.06t5-43.06a361,361,0,0,1,5.16-36.39q1.42-13.25-3-17t-12.6-1.71a80.66,80.66,0,0,0-18.68,7.71q-10.54,5.72-20.91,11.41a143.93,143.93,0,0,1-19.69,9.1q-9.32,3.42-15,.79-8-3.67-6.31-8.69t9.93-10.73a135.83,135.83,0,0,1,21.92-11.74q13.65-6,29.44-12.06t32.32-11.63q16.55-5.61,31-10t25.4-7.54q10.95-3.13,15.31-4.54l15.85-4.44q10.12-2.83,20.55-5.89t18.54-5.22q8.11-2.16,9.83-2.44,6.47-1.37,16.21-3.27t19-3.36q9.28-1.47,16.21-2.21t7-.4l5.57,10.74q-9.17,2.16-24.89,5.17t-34.46,7q-18.74,4-38.71,9.12t-37,11.14a191,191,0,0,0-29.62,13.14q-12.61,7.11-17,15.19m192.36.47a9.83,9.83,0,0,1-1.79-.1c-1-.11-2.11-.24-3.32-.41s-2.33-.34-3.35-.55a8.31,8.31,0,0,0-1.82-.25q-22.79,4.3-39.49,8a265.29,265.29,0,0,0-28.75,7.93,93.88,93.88,0,0,0-20.32,9.59,54.6,54.6,0,0,0-14,13.13,80.38,80.38,0,0,0-10.06,18.57,221.31,221.31,0,0,0-8.21,26q-2,6.58-3.54,12.47a70.85,70.85,0,0,0-1.9,10.24q-.54,5,1.19,7.88a85.8,85.8,0,0,0,32.23-6.67q15.73-6.51,31.34-14.48T375,240a98.8,98.8,0,0,1,33.12-8.18l1.24,6.56q.11.57-10.08,4.41t-26,10.21q-15.77,6.37-34.39,14.76t-35.39,18A185.08,185.08,0,0,0,274.62,306q-12.17,10.56-15.24,20.87-5.62,20.24-10.19,41.31t-7.7,42a7.13,7.13,0,0,1-4.11,4q-2.88,1.14-5-2.3a16,16,0,0,1-2.25-8,42.26,42.26,0,0,1,.83-8.86,84.08,84.08,0,0,1,2.28-9,69.39,69.39,0,0,0,2.11-8.36q.89-3.11,2.79-11t3.93-16.68q2-8.79,3.76-16.79t2.62-11.12a5.42,5.42,0,0,0-1.58-6q-2.65-2.3-5.55-4.41a22,22,0,0,1-4.67-4.43q-1.77-2.32,1-6.39a9.61,9.61,0,0,1,4.64-3.53q3-1.16,6.36-2.23a25.84,25.84,0,0,0,6-2.75,9,9,0,0,0,3.7-5.42l20.86-67.67q-3.45-7.32-3.7-12.58a19.43,19.43,0,0,1,1.75-9.48,31.3,31.3,0,0,1,5.83-8.18q3.82-4,8.77-9,28.48-10.1,56.23-18.59A376.42,376.42,0,0,1,406,148.75a10.2,10.2,0,0,1,4.73,1.61,21,21,0,0,1,5.19,4,9.09,9.09,0,0,1,2.56,5q.33,2.59-3.2,4.14"/></g></g></svg>