<svg version="1" xmlns="http://www.w3.org/2000/svg" width="693.333" height="693.333" viewBox="0 0 520.000000 520.000000"><path d="M239.9 13.4c-.2.2-3.3.7-6.9 1-10.4 1.1-13.2 1.5-23.1 3.7-5.2 1.1-10.4 2.2-11.7 2.5-1.2.2-5.9 1.6-10.5 3-44.4 13.9-82 38.2-112.9 72.8-7.5 8.4-19.8 24.7-23.3 30.7-.5 1-3.1 5.3-5.6 9.6-5.2 8.8-11.5 21.8-15.8 32.6-3.1 7.9-8.8 25.1-9.5 28.8-.2 1.3-.9 4.2-1.5 6.4-3.9 14.8-5.6 31.5-5.6 55.5 0 22.4.7 30.7 4 47.5 6.7 33.5 17.9 60.6 37 89.5 29.7 44.9 74.2 79.3 125 96.6 13.9 4.8 19.8 6.3 36 9.4 15.5 2.9 17.6 3.1 40 3.5 24.6.4 39-.9 57.5-5.1 3.6-.9 7.3-1.7 8.4-1.9 27.2-5.7 67.7-26 93.6-47 9.3-7.5 26.8-24.7 34.6-33.9 5.6-6.6 18.4-24.2 18.4-25.3 0-.3.6-1.4 1.4-2.2 4.1-4.6 16.6-29.8 22-44.2 3.3-9 8.1-24.5 9-29.3.2-1.1.9-4.2 1.5-6.8 3-13.2 4.3-25.7 4.6-46.3.4-19.9-.9-39.4-2.9-46.2-.3-1-.8-3.7-1.1-6-1.4-10.3-7.5-30.5-13.7-45.8-9.4-23-24.7-48.4-40.3-66.5-6.9-8.2-27.6-28-35.6-34.2-19.2-15-44.5-29.2-66-37.2-10.1-3.7-28.3-9.1-33.4-9.9-1.6-.3-5-1-7.5-1.5-2.5-.6-6.7-1.3-9.5-1.7-2.7-.4-6.1-.9-7.5-1.2-2.9-.5-48.6-1.4-49.1-.9zm177.6 86.7c1.4 2.9 2.2 5.6 1.8 6-.7.6-22.8 5.5-33.8 7.3-6.4 1.1-37.3 7.8-43 9.2-3.3.9-7 1.8-8.1 2-4.1.8-25.9 6.5-36.4 9.6-37.1 10.9-64.4 26-66.5 36.6-.3 1.7-.8 6.1-2 16.2-.6 5-1.8 18-2 21.5-.2 3.1-1.3 13.5-2 19.5-.3 1.9-.7 6-1 9-.3 3-.7 6.4-.9 7.6-.2 1.2-.7 4.5-1.1 7.5-.3 3-.8 6.1-1 6.9-.2.8-.7 4.2-1.1 7.5-.3 3.3-.8 6.9-.9 8-1.1 6.7-1.6 10.3-2 12.5-.3 1.4-.7 4.1-1 6-.5 2.8-6.3 30.1-7.9 37-1.5 6.4-7.5 25.3-10.6 33.5-12.3 32.9-28.4 53.1-48.1 60.6-11.7 4.5-30.5 3.1-40-3-14.9-9.5-32.3-34.1-32.8-46.5-.2-5.1.1-5.9 2.8-8.6 1.6-1.7 3.4-3 3.9-3s1.5 2.6 2.2 5.7c1.9 8.9 6.5 20.7 9.8 25.5 7.4 10.7 13.2 13.6 24.4 12.4 3.5-.4 6.5-.7 6.8-.6 1.4.2 15.8-5.3 21-8.1 12.8-6.8 26.8-22.7 35.3-40.1 7.2-14.7 10.7-25.5 15.1-46.3 2.2-10.4 3-15 5.1-28.5 1.2-7.6 3.1-22.4 4-31 .3-3 .8-7.1 1-9 .4-3.7 1-9.2 2.1-20 .3-3.6.8-7.3 1-8.3.3-1.7 1.7-10.9 3.3-21.9 3.1-20.7-7.4-25.4-30.9-13.9-3 1.5-12.7 6.6-21.5 11.4-24 12.9-33.3 16-40.5 13-10.7-4.4-9.1-11.5 4.7-20.6 11-7.2 27.6-14.8 55.8-25.4 21.9-8.2 67.6-23.4 78-25.9.6-.1 7.3-2.1 15-4.3 7.7-2.3 25.3-7.3 39-11.2 13.8-3.9 26.1-7.4 27.5-7.9 6-2.2 47-10.1 60.5-11.6 3.3-.3 6.1-.7 6.2-.8.1-.1 1.5-.3 3.2-.4 2.7-.2 3.3.3 5.6 4.9zm9.4 56.4c3.6 1.8 8.1 7.1 8.1 9.5 0 3.3-2.6 4.4-8.3 3.4-5.9-1-8.3-.6-39.9 6.2-38 8.2-54.2 14.9-66.8 27.4-6.1 6-8.5 9.3-12.2 17-4 8.2-10.6 26.5-12.2 34.1-.3 1.3-1.7 6.7-3.1 11.9-2.5 9.2-3.6 19.2-2.2 20.6 1.3 1.4 14.4.1 22.4-2.2 2.9-.8 5.5-1.5 5.8-1.5.4 0 9.1-3.7 14-5.9 1.1-.5 4.2-1.9 7-3.1 2.7-1.2 12.9-6.1 22.5-10.8 31.9-15.9 46.6-21 61-21.5 1.4-.1 3.4 6.1 2.1 6.8-.3.2-7.8 3.2-16.6 6.6-70.1 27.1-111 49.2-130.2 70.4-5.8 6.4-9.9 15.8-12.8 29.6-.2.8-1.7 7.6-3.5 15-2.8 12.2-4.3 18.9-5.6 26-.3 1.4-1.1 5.6-1.9 9.5-.8 3.8-1.7 9.2-2.1 12-1.2 9.7-2.2 12-5.6 13.1-1.6.5-2.7 0-4.5-2-3.9-4.5-3.5-12.1 1.6-32 4.6-17.7 7.9-31.1 8.5-34.6.3-1.4.7-3.4 1-4.5 2.1-9.1 2.8-12.3 3.2-14 .2-1.1.9-4.1 1.5-6.7 1.3-5.6.7-6.7-6.7-12.6-2.8-2.2-5.4-5-5.7-6.1-.9-3.4 3.4-7.5 10.5-10.1 10.8-3.9 11-4.2 15.1-17.5 1.4-4.4 6.2-20.1 10.7-34.9l8.3-26.8-1.8-5.7c-3.7-11.6-1.6-18.4 9.1-29.4 3.6-3.7 6.7-6.7 6.9-6.7.1 0 6.5-2.2 14.1-4.8 11.6-4.1 34-11.2 55.6-17.7 4.8-1.4 29.3-6.7 38.8-8.3 8.1-1.4 10.8-1.4 13.9.3z"/></svg>